<svg version="1.1" id="1087313175" xmlns="http://www.w3.org/2000/svg" xmlns:xlink="http://www.w3.org/1999/xlink" x="0px" y="0px" viewBox="0 0 113.3 105.2" style="enable-background:new 0 0 113.3 105.2;" xml:space="preserve" duda_id="1087313175" class="svg u_1087313175" data-icon-custom="true" data-icon-name="TAKE-ACTION-04.svg"> <style type="text/css" id="1769101213" duda_id="1769101213">.st0{fill:#2CBC62;}
	.st1{fill:#39343A;}
	.st2{fill:#FFFFFF;}
	.st3{fill:#212121;}
	.st4{fill:#4D4D4D;}
	.st5{fill:#555555;}
	.st6{fill:#28B467;}
	.st7{fill:none;stroke:#FFFFFF;stroke-width:3;stroke-miterlimit:10;}
	.st8{fill:#1A8654;}
	.st9{fill:none;stroke:#28B467;stroke-miterlimit:10;}
	.st10{fill:#F6F6F6;}
	.st11{fill:url(#SVGID_7_);}
	.st12{fill:#E6273C;}
	.st13{fill:#FF2B42;}
	.st14{fill:url(#SVGID_8_);}</style> 
 <g id="1301322075" duda_id="1301322075"> <g id="1229481295" duda_id="1229481295"> <path d="M27.6,86.8c6.7,6.3,15.8,10.1,25.7,10.1c2.5,0,4.9-0.2,7.2-0.7c0.8-0.2,1.3-0.9,1.2-1.7c-0.2-0.8-0.9-1.3-1.7-1.2l0,0
			c-2.1,0.4-4.4,0.6-6.6,0.6c-9.1,0-17.4-3.5-23.6-9.3" id="1224782799" duda_id="1224782799"></path> 
 <path d="M90.6,64.8c0.3-1.8,0.4-3.7,0.4-5.6c0-9.4-3.4-18-9.1-24.6c-0.5-0.6-1.4-0.7-2-0.2c-0.6,0.5-0.7,1.4-0.2,2l0,0
			c5.2,6.1,8.4,14,8.4,22.7c0,1.8-0.1,3.6-0.4,5.3" id="1890206861" duda_id="1890206861"></path> 
 <path d="M40.9,23.5c-10.8,3.8-19.3,12.2-23.1,23c-0.3,0.8,0.1,1.6,0.9,1.9s1.6-0.1,1.9-0.9l0,0C24.1,37.2,32.4,29.2,42.8,26" id="1510459240" duda_id="1510459240"></path> 
</g> 
 <g id="1897038241" duda_id="1897038241"> <path d="M47.1,19.2l-1.9,1.9l6.1,6.1l13.5-13.5l-1.9-1.9L51.3,23.4L47.1,19.2z M63.4,21.8c0,5.9-4.9,10.8-10.8,10.8
			c-5.9,0-10.8-4.9-10.8-10.8c0-5.9,4.9-10.8,10.8-10.8c1.1,0,2,0.1,3,0.4l2.2-2.2c-1.6-0.5-3.4-0.9-5.1-0.9
			c-7.4,0-13.5,6.1-13.5,13.5c0,7.4,6.1,13.5,13.5,13.5c7.4,0,13.5-6.1,13.5-13.5H63.4z M63.4,21.8" id="1117776790" duda_id="1117776790"></path> 
</g> 
 <g id="1399225920" duda_id="1399225920"> <path d="M83.8,75.2L82,77.1l6.1,6.1l13.5-13.5l-1.9-1.9L88,79.4L83.8,75.2z M100.2,77.8c0,5.9-4.9,10.8-10.8,10.8
			c-5.9,0-10.8-4.9-10.8-10.8c0-5.9,4.9-10.8,10.8-10.8c1.1,0,2,0.1,3,0.4l2.2-2.2c-1.6-0.5-3.4-0.9-5.1-0.9
			c-7.4,0-13.5,6.1-13.5,13.5c0,7.4,6.1,13.5,13.5,13.5c7.4,0,13.5-6.1,13.5-13.5H100.2z M100.2,77.8" id="1427691474" duda_id="1427691474"></path> 
</g> 
 <g id="1266649540" duda_id="1266649540"> <path d="M18.3,71.9l-1.9,1.9l6.1,6.1L36,66.4l-1.9-1.9L22.5,76.1L18.3,71.9z M34.7,74.5c0,5.9-4.9,10.8-10.8,10.8
			c-5.9,0-10.8-4.9-10.8-10.8c0-5.9,4.9-10.8,10.8-10.8c1.1,0,2,0.1,3,0.4L29,62c-1.6-0.5-3.4-0.9-5.1-0.9
			c-7.4,0-13.5,6.1-13.5,13.5c0,7.4,6.1,13.5,13.5,13.5c7.4,0,13.5-6.1,13.5-13.5H34.7z M34.7,74.5" id="1086856339" duda_id="1086856339"></path> 
</g> 
</g> 
</svg>